<svg width="24" height="24" viewBox="0 0 24 24" fill="none" xmlns="http://www.w3.org/2000/svg">
<g clip-path="url(#clip0_4787_132)">
<path d="M12 0C5.46923 0 0 4.68923 0 10.6154C0 13.4123 1.25446 15.9212 3.23077 17.7978C2.98999 18.4256 2.64894 19.0101 2.22092 19.5286C1.65311 20.2175 1.02577 20.855 0.346154 21.4338C0.197092 21.5534 0.0888218 21.7163 0.0362852 21.9001C-0.0162513 22.0838 -0.0104643 22.2793 0.0528478 22.4597C0.11616 22.64 0.233876 22.7962 0.38975 22.9068C0.545624 23.0173 0.731972 23.0768 0.923077 23.0769C2.96769 23.0769 4.43815 23.0538 5.76923 22.7022C6.96 22.3865 7.98369 21.7255 9.02862 20.7978C9.97938 21.0258 10.9606 21.2308 12 21.2308C18.5308 21.2308 24 16.5415 24 10.6154C24 4.68923 18.5308 0 12 0ZM12 1.84615C17.6538 1.84615 22.1538 5.83385 22.1538 10.6154C22.1538 15.3969 17.6538 19.3846 12 19.3846C10.9948 19.3846 9.95077 19.2111 9 18.9517C8.84796 18.9135 8.68868 18.9146 8.5372 18.955C8.38571 18.9953 8.247 19.0736 8.13415 19.1825C7.09569 20.1785 6.33046 20.6428 5.30769 20.9132C4.83692 21.0378 3.92862 21.0083 3.288 21.0582C3.41723 20.9123 3.53815 20.8348 3.66369 20.6825C4.38923 19.7963 5.05108 18.8594 5.25046 17.7978C5.27793 17.6385 5.26305 17.4747 5.20732 17.3229C5.1516 17.1711 5.05697 17.0366 4.93292 16.9329C2.99908 15.336 1.84615 13.0975 1.84615 10.6154C1.84615 5.83385 6.34615 1.84615 12 1.84615ZM10.2406 5.45169C10.0781 5.48816 9.92854 5.5679 9.80769 5.68246L8.42308 6.98123L9.66369 8.33631L10.7594 7.29785H12.9803L13.8462 8.28V9.636L11.4803 11.2218C11.3538 11.308 11.2508 11.4242 11.1804 11.56C11.11 11.6958 11.0744 11.847 11.0769 12V13.8462H12.9231V12.5188L15.2889 10.9329C15.4155 10.8467 15.5187 10.7304 15.5891 10.5944C15.6595 10.4584 15.695 10.307 15.6923 10.1538V7.93292C15.6911 7.70982 15.6091 7.49471 15.4615 7.32738L14.0769 5.76923C13.9908 5.67009 13.8844 5.59049 13.765 5.53573C13.6457 5.48097 13.516 5.45232 13.3846 5.45169H10.4418C10.375 5.44436 10.3075 5.44436 10.2406 5.45169ZM11.0769 14.7692V16.6154H12.9231V14.7692H11.0769Z" fill="#B9B9B9"/>
</g>
<defs>
<clipPath id="clip0_4787_132">
<rect width="24" height="24" fill="white"/>
</clipPath>
</defs>
</svg>
