<svg width="24" height="24" viewBox="0 0 24 24" fill="none" xmlns="http://www.w3.org/2000/svg">
<path d="M10 16.75C9.73333 16.75 9.47933 16.7 9.238 16.6C8.996 16.5 8.775 16.3584 8.575 16.175L3.825 11.425C3.64167 11.225 3.5 11.004 3.4 10.762C3.3 10.5207 3.25 10.2667 3.25 10C3.25 9.73336 3.3 9.47502 3.4 9.22502C3.5 8.97502 3.64167 8.75836 3.825 8.57502L8.575 3.80002L6.875 2.10002C6.69167 1.91669 6.6 1.68735 6.6 1.41202C6.6 1.13735 6.7 0.900022 6.9 0.700022C7.1 0.516688 7.33333 0.420688 7.6 0.412022C7.86667 0.404022 8.1 0.500022 8.3 0.700022L16.175 8.57502C16.375 8.75836 16.521 8.97502 16.613 9.22502C16.7043 9.47502 16.75 9.73336 16.75 10C16.75 10.2667 16.7043 10.5207 16.613 10.762C16.521 11.004 16.375 11.225 16.175 11.425L11.425 16.175C11.2417 16.3584 11.025 16.5 10.775 16.6C10.525 16.7 10.2667 16.75 10 16.75ZM10 5.22502L5.225 10H14.775L10 5.22502ZM19 17C18.45 17 17.979 16.8044 17.587 16.413C17.1957 16.021 17 15.55 17 15C17 14.65 17.104 14.275 17.312 13.875C17.5207 13.475 17.75 13.1 18 12.75C18.15 12.55 18.3083 12.3417 18.475 12.125C18.6417 11.9084 18.8167 11.7 19 11.5C19.1833 11.7 19.3583 11.9084 19.525 12.125C19.6917 12.3417 19.85 12.55 20 12.75C20.25 13.1 20.4793 13.475 20.688 13.875C20.896 14.275 21 14.65 21 15C21 15.55 20.8043 16.021 20.413 16.413C20.021 16.8044 19.55 17 19 17ZM4 24C3.45 24 2.97933 23.8044 2.588 23.413C2.196 23.021 2 22.55 2 22C2 21.45 2.196 20.979 2.588 20.587C2.97933 20.1957 3.45 20 4 20H20C20.55 20 21.021 20.1957 21.413 20.587C21.8043 20.979 22 21.45 22 22C22 22.55 21.8043 23.021 21.413 23.413C21.021 23.8044 20.55 24 20 24H4Z" fill="#353535"/>
</svg>
