<svg width="24" height="24" viewBox="0 0 24 24" fill="none" xmlns="http://www.w3.org/2000/svg">
<path d="M2.625 6.375C2.625 6.07663 2.74353 5.79048 2.9545 5.5795C3.16548 5.36853 3.45163 5.25 3.75 5.25H20.25C20.5484 5.25 20.8345 5.36853 21.0455 5.5795C21.2565 5.79048 21.375 6.07663 21.375 6.375C21.375 6.67337 21.2565 6.95952 21.0455 7.1705C20.8345 7.38147 20.5484 7.5 20.25 7.5H3.75C3.45163 7.5 3.16548 7.38147 2.9545 7.1705C2.74353 6.95952 2.625 6.67337 2.625 6.375ZM20.25 9H8.25C7.95163 9 7.66548 9.11853 7.4545 9.3295C7.24353 9.54048 7.125 9.82663 7.125 10.125C7.125 10.4234 7.24353 10.7095 7.4545 10.9205C7.66548 11.1315 7.95163 11.25 8.25 11.25H20.25C20.5484 11.25 20.8345 11.1315 21.0455 10.9205C21.2565 10.7095 21.375 10.4234 21.375 10.125C21.375 9.82663 21.2565 9.54048 21.0455 9.3295C20.8345 9.11853 20.5484 9 20.25 9ZM20.25 12.75H3.75C3.45163 12.75 3.16548 12.8685 2.9545 13.0795C2.74353 13.2905 2.625 13.5766 2.625 13.875C2.625 14.1734 2.74353 14.4595 2.9545 14.6705C3.16548 14.8815 3.45163 15 3.75 15H20.25C20.5484 15 20.8345 14.8815 21.0455 14.6705C21.2565 14.4595 21.375 14.1734 21.375 13.875C21.375 13.5766 21.2565 13.2905 21.0455 13.0795C20.8345 12.8685 20.5484 12.75 20.25 12.75ZM20.25 16.5H8.25C7.95163 16.5 7.66548 16.6185 7.4545 16.8295C7.24353 17.0405 7.125 17.3266 7.125 17.625C7.125 17.9234 7.24353 18.2095 7.4545 18.4205C7.66548 18.6315 7.95163 18.75 8.25 18.75H20.25C20.5484 18.75 20.8345 18.6315 21.0455 18.4205C21.2565 18.2095 21.375 17.9234 21.375 17.625C21.375 17.3266 21.2565 17.0405 21.0455 16.8295C20.8345 16.6185 20.5484 16.5 20.25 16.5Z" fill="#353535"/>
</svg>
