<svg width="22" height="22" viewBox="0 0 22 22" fill="none" xmlns="http://www.w3.org/2000/svg">
<path d="M21.1617 19.505L17.195 15.55C18.4748 13.9195 19.1692 11.9061 19.1667 9.83334C19.1667 7.98738 18.6193 6.18287 17.5937 4.64802C16.5682 3.11316 15.1105 1.91688 13.405 1.21046C11.6996 0.504044 9.82298 0.319213 8.01249 0.679342C6.20201 1.03947 4.53896 1.92838 3.23367 3.23367C1.92838 4.53896 1.03947 6.20201 0.679342 8.01249C0.319213 9.82298 0.504044 11.6996 1.21046 13.405C1.91688 15.1105 3.11316 16.5682 4.64802 17.5937C6.18287 18.6193 7.98738 19.1667 9.83334 19.1667C11.9061 19.1692 13.9195 18.4748 15.55 17.195L19.505 21.1617C19.6135 21.271 19.7425 21.3578 19.8847 21.417C20.0268 21.4763 20.1793 21.5068 20.3333 21.5068C20.4874 21.5068 20.6398 21.4763 20.782 21.417C20.9242 21.3578 21.0532 21.271 21.1617 21.1617C21.271 21.0532 21.3578 20.9242 21.417 20.782C21.4763 20.6398 21.5068 20.4874 21.5068 20.3333C21.5068 20.1793 21.4763 20.0268 21.417 19.8847C21.3578 19.7425 21.271 19.6135 21.1617 19.505ZM2.83334 9.83334C2.83334 8.44887 3.24388 7.09549 4.01305 5.94435C4.78222 4.7932 5.87547 3.89599 7.15455 3.36618C8.43364 2.83637 9.8411 2.69774 11.199 2.96784C12.5568 3.23794 13.8041 3.90462 14.7831 4.88359C15.7621 5.86256 16.4287 7.10984 16.6988 8.46771C16.9689 9.82557 16.8303 11.233 16.3005 12.5121C15.7707 13.7912 14.8735 14.8845 13.7223 15.6536C12.5712 16.4228 11.2178 16.8333 9.83334 16.8333C7.97682 16.8333 6.19634 16.0958 4.88359 14.7831C3.57084 13.4703 2.83334 11.6899 2.83334 9.83334Z" fill="#808080"/>
</svg>
