<svg width="45" height="45" viewBox="0 0 45 45" fill="none" xmlns="http://www.w3.org/2000/svg">
<g clip-path="url(#clip0_803_6496)">
<rect width="45" height="45" fill="#F2F2FD" fill-opacity="0.06"/>
<path d="M33.5312 11.2009C31.5702 5.99637 27.3543 2.70007 20.9861 2.70007C12.8833 2.70007 7.21402 8.71671 6.7268 16.5664C2.82019 17.8159 0 21.8012 0 26.3152C0 31.8411 4.34391 36.5091 9.48441 36.5091H13.5471C14.3233 36.5091 14.9533 35.8791 14.9533 35.1029C14.9533 34.3259 14.3233 33.6966 13.5471 33.6966H9.48441C5.86753 33.6966 2.76816 30.3167 2.76816 26.3152C2.76816 22.7792 5.24738 19.5891 8.3573 19.0548L9.63347 18.8347L9.52027 17.5459L9.50972 17.5297C9.50972 10.6798 14.0175 5.51328 20.9861 5.51328C26.5718 5.51328 29.7098 8.26531 31.1611 12.9594L31.462 13.9276L32.4752 13.9494C37.6994 14.0591 42.2796 18.2975 42.2796 23.5633C42.2796 28.3557 39.1035 33.6967 34.2949 33.6967H31.0816C30.3053 33.6967 29.6753 34.3267 29.6753 35.1029C29.6753 35.8799 30.3053 36.5092 31.0816 36.5092L34.2843 36.505C41.3156 36.3194 44.9782 29.6025 44.9782 23.5633C44.9782 17.0721 39.8911 11.8851 33.5313 11.201L33.5312 11.2009ZM23.5539 22.4058C23.5462 22.3973 23.5434 22.3903 23.5384 22.3833L23.1826 22.0113C22.9879 21.8053 22.7284 21.7033 22.469 21.7048C22.2095 21.7026 21.9514 21.8053 21.7532 22.0113L21.3974 22.3832C21.3904 22.3903 21.3889 22.3987 21.3826 22.4058L16.3068 28.0195C15.9137 28.4301 15.9137 29.0946 16.3068 29.5066L16.6612 29.7471C17.0543 30.1577 17.6912 30.0248 18.0836 29.6142L21.0768 26.2772V40.4465C21.0768 41.2228 21.7068 41.8528 22.4831 41.8528C23.2593 41.8528 23.8893 41.2228 23.8893 40.4465V26.2905L26.9817 29.702C27.3747 30.1126 28.0103 30.2456 28.4027 29.8349L28.7571 29.5945C29.1502 29.1824 29.1502 28.518 28.7571 28.1074L23.5539 22.4058Z" fill="#7D7D7D"/>
</g>
<defs>
<clipPath id="clip0_803_6496">
<rect width="45" height="45" fill="white"/>
</clipPath>
</defs>
</svg>
