<svg width="24" height="24" viewBox="0 0 24 24" fill="none" xmlns="http://www.w3.org/2000/svg">
<g clip-path="url(#clip0_4405_204)">
<path d="M18 19C18.2549 19.0003 18.5 19.0979 18.6854 19.2728C18.8707 19.4478 18.9822 19.687 18.9972 19.9414C19.0121 20.1958 18.9293 20.4464 18.7657 20.6418C18.6021 20.8373 18.3701 20.9629 18.117 20.993L18 21H5.99999C5.74511 20.9997 5.49996 20.9021 5.31462 20.7272C5.12929 20.5522 5.01776 20.313 5.00282 20.0586C4.98788 19.8042 5.07067 19.5536 5.23426 19.3582C5.39785 19.1627 5.62989 19.0371 5.88299 19.007L5.99999 19H18ZM17 3C17.2449 3.00003 17.4813 3.08996 17.6644 3.25272C17.8474 3.41547 17.9643 3.63975 17.993 3.883L18 4V12C18.0016 13.5729 17.3855 15.0834 16.2843 16.2065C15.1832 17.3297 13.6851 17.9755 12.1125 18.005C10.5399 18.0345 9.01865 17.4453 7.87617 16.3643C6.7337 15.2832 6.06139 13.7968 6.00399 12.225L5.99999 12V4C6.00027 3.74512 6.09787 3.49997 6.27284 3.31463C6.44781 3.1293 6.68694 3.01777 6.94139 3.00283C7.19583 2.98789 7.44637 3.07067 7.64182 3.23426C7.83728 3.39786 7.96289 3.6299 7.99299 3.883L7.99999 4V12C7.99997 13.0436 8.40778 14.0458 9.13639 14.7929C9.86501 15.54 10.8567 15.9727 11.9 15.9988C12.9432 16.0249 13.9553 15.6423 14.7204 14.9326C15.4854 14.2228 15.9428 13.2422 15.995 12.2L16 12V4C16 3.73478 16.1053 3.48043 16.2929 3.29289C16.4804 3.10536 16.7348 3 17 3Z" fill="#353535"/>
</g>
<defs>
<clipPath id="clip0_4405_204">
<rect width="24" height="24" fill="white"/>
</clipPath>
</defs>
</svg>
