<svg width="24" height="24" viewBox="0 0 24 24" fill="none" xmlns="http://www.w3.org/2000/svg">
<path d="M20 20C19.7167 20 19.4793 19.904 19.288 19.712C19.096 19.5207 19 19.2833 19 19V18C19 17.7167 19.096 17.4793 19.288 17.288C19.4793 17.096 19.7167 17 20 17H22V16H19.5C19.3667 16 19.25 15.95 19.15 15.85C19.05 15.75 19 15.6333 19 15.5C19 15.3667 19.05 15.25 19.15 15.15C19.25 15.05 19.3667 15 19.5 15H22C22.2833 15 22.5207 15.0957 22.712 15.287C22.904 15.479 23 15.7167 23 16V17C23 17.2833 22.904 17.5207 22.712 17.712C22.5207 17.904 22.2833 18 22 18H20V19H22.5C22.6333 19 22.75 19.05 22.85 19.15C22.95 19.25 23 19.3667 23 19.5C23 19.6333 22.95 19.75 22.85 19.85C22.75 19.95 22.6333 20 22.5 20H20ZM10.5 10.725L7.29999 5.725C7.06666 5.34167 7.05432 4.95833 7.26299 4.575C7.47099 4.19167 7.79166 4 8.22499 4C8.42499 4 8.60832 4.04567 8.77499 4.137C8.94165 4.229 9.07499 4.35833 9.17499 4.525L11.95 9H12.05L14.8 4.525C14.9 4.34167 15.0333 4.20833 15.2 4.125C15.3667 4.04167 15.55 4 15.75 4C16.2 4 16.525 4.19167 16.725 4.575C16.925 4.95833 16.9083 5.34167 16.675 5.725L13.475 10.725L17.025 16.25C17.2583 16.6333 17.2667 17.021 17.05 17.413C16.8333 17.8043 16.5083 18 16.075 18C15.875 18 15.6917 17.9543 15.525 17.863C15.3583 17.771 15.225 17.6417 15.125 17.475L12.05 12.575H11.95L8.87499 17.475C8.75832 17.6583 8.62099 17.7917 8.46299 17.875C8.30432 17.9583 8.12499 18 7.92499 18C7.47499 18 7.14599 17.8083 6.93799 17.425C6.72932 17.0417 6.74165 16.6583 6.97499 16.275L10.5 10.725Z" fill="#353535"/>
</svg>
