<svg width="24" height="24" viewBox="0 0 24 24" fill="none" xmlns="http://www.w3.org/2000/svg">
<path d="M3.5 16.5C3.89782 16.5 4.27936 16.6581 4.56066 16.9394C4.84196 17.2207 5 17.6022 5 18C5 18.3978 4.84196 18.7794 4.56066 19.0607C4.27936 19.342 3.89782 19.5 3.5 19.5C3.10218 19.5 2.72064 19.342 2.43934 19.0607C2.15804 18.7794 2 18.3978 2 18C2 17.6022 2.15804 17.2207 2.43934 16.9394C2.72064 16.6581 3.10218 16.5 3.5 16.5ZM7.5 17H21.003C21.2579 17.0003 21.503 17.0979 21.6884 17.2729C21.8737 17.4478 21.9852 17.687 22.0002 17.9414C22.0151 18.1959 21.9323 18.4464 21.7687 18.6419C21.6051 18.8373 21.3731 18.9629 21.12 18.993L21.003 19H7.5C7.2452 18.9995 7.00022 18.9017 6.81508 18.7267C6.62993 18.5516 6.51859 18.3125 6.50379 18.0581C6.48898 17.8038 6.57183 17.5533 6.73542 17.358C6.899 17.1626 7.13099 17.0371 7.384 17.007L7.5 17H21.003H7.5ZM3.5 10.5C3.89782 10.5 4.27936 10.6581 4.56066 10.9394C4.84196 11.2207 5 11.6022 5 12C5 12.3978 4.84196 12.7794 4.56066 13.0607C4.27936 13.342 3.89782 13.5 3.5 13.5C3.10218 13.5 2.72064 13.342 2.43934 13.0607C2.15804 12.7794 2 12.3978 2 12C2 11.6022 2.15804 11.2207 2.43934 10.9394C2.72064 10.6581 3.10218 10.5 3.5 10.5ZM7.5 11H21.003C21.2579 11.0003 21.503 11.0979 21.6884 11.2729C21.8737 11.4478 21.9852 11.687 22.0002 11.9414C22.0151 12.1959 21.9323 12.4464 21.7687 12.6419C21.6051 12.8373 21.3731 12.9629 21.12 12.993L21.003 13H7.5C7.2452 12.9995 7.00022 12.9017 6.81508 12.7267C6.62993 12.5516 6.51859 12.3125 6.50379 12.0581C6.48898 11.8038 6.57183 11.5533 6.73542 11.358C6.899 11.1626 7.13099 11.0371 7.384 11.007L7.5 11H21.003H7.5ZM3.5 4.50802C3.70018 4.50285 3.89936 4.53781 4.08581 4.61084C4.27226 4.68388 4.4422 4.7935 4.58561 4.93325C4.72901 5.07301 4.84299 5.24006 4.92081 5.42456C4.99863 5.60906 5.03873 5.80728 5.03873 6.00752C5.03873 6.20776 4.99863 6.40598 4.92081 6.59048C4.84299 6.77498 4.72901 6.94203 4.58561 7.08178C4.4422 7.22154 4.27226 7.33116 4.08581 7.40419C3.89936 7.47723 3.70018 7.51219 3.5 7.50702C3.10218 7.50702 2.72064 7.34898 2.43934 7.06768C2.15804 6.78637 2 6.40484 2 6.00702C2 5.60919 2.15804 5.22766 2.43934 4.94636C2.72064 4.66505 3.10218 4.50702 3.5 4.50702V4.50802ZM7.5 5.00002H21.003C21.2579 5.0003 21.503 5.0979 21.6884 5.27287C21.8737 5.44784 21.9852 5.68697 22.0002 5.94141C22.0151 6.19586 21.9323 6.4464 21.7687 6.64185C21.6051 6.8373 21.3731 6.96292 21.12 6.99302L21.003 7.00002H7.5C7.2452 6.99949 7.00022 6.90171 6.81508 6.72666C6.62993 6.55161 6.51859 6.31249 6.50379 6.05813C6.48898 5.80376 6.57183 5.55334 6.73542 5.35799C6.899 5.16264 7.13099 5.03711 7.384 5.00702L7.5 5.00002H21.003H7.5Z" fill="#353535"/>
</svg>
