<svg width="28" height="28" viewBox="0 0 28 28" fill="none" xmlns="http://www.w3.org/2000/svg">
<path d="M23.3333 10.5C23.3333 9.85835 22.8083 9.33335 22.1666 9.33335H18.6666V5.83335C18.6666 5.19169 18.1416 4.66669 17.5 4.66669C16.8583 4.66669 16.3333 5.19169 16.3333 5.83335V9.33335H11.6666V5.83335C11.6666 5.19169 11.1416 4.66669 10.5 4.66669C9.85829 4.66669 9.33329 5.19169 9.33329 5.83335V9.33335H5.83329C5.19163 9.33335 4.66663 9.85835 4.66663 10.5C4.66663 11.1417 5.19163 11.6667 5.83329 11.6667H9.33329V16.3334H5.83329C5.19163 16.3334 4.66663 16.8584 4.66663 17.5C4.66663 18.1417 5.19163 18.6667 5.83329 18.6667H9.33329V22.1667C9.33329 22.8084 9.85829 23.3334 10.5 23.3334C11.1416 23.3334 11.6666 22.8084 11.6666 22.1667V18.6667H16.3333V22.1667C16.3333 22.8084 16.8583 23.3334 17.5 23.3334C18.1416 23.3334 18.6666 22.8084 18.6666 22.1667V18.6667H22.1666C22.8083 18.6667 23.3333 18.1417 23.3333 17.5C23.3333 16.8584 22.8083 16.3334 22.1666 16.3334H18.6666V11.6667H22.1666C22.8083 11.6667 23.3333 11.1417 23.3333 10.5ZM16.3333 16.3334H11.6666V11.6667H16.3333V16.3334Z" fill="#A8A8A8"/>
</svg>
