<svg width="24" height="24" viewBox="0 0 24 24" fill="none" xmlns="http://www.w3.org/2000/svg">
<path d="M3.5 20C3.36667 20 3.25 19.95 3.15 19.85C3.05 19.75 3 19.6333 3 19.5C3 19.3667 3.05 19.25 3.15 19.15C3.25 19.05 3.36667 19 3.5 19H5V18.5H4.5C4.36667 18.5 4.25 18.45 4.15 18.35C4.05 18.25 4 18.1333 4 18C4 17.8667 4.05 17.75 4.15 17.65C4.25 17.55 4.36667 17.5 4.5 17.5H5V17H3.5C3.36667 17 3.25 16.95 3.15 16.85C3.05 16.75 3 16.6333 3 16.5C3 16.3667 3.05 16.25 3.15 16.15C3.25 16.05 3.36667 16 3.5 16H5.5C5.63333 16 5.75 16.05 5.85 16.15C5.95 16.25 6 16.3667 6 16.5V19.5C6 19.6333 5.95 19.75 5.85 19.85C5.75 19.95 5.63333 20 5.5 20H3.5ZM4.5 8C4.36667 8 4.25 7.95 4.15 7.85C4.05 7.75 4 7.63333 4 7.5V5H3.5C3.36667 5 3.25 4.95 3.15 4.85C3.05 4.75 3 4.63333 3 4.5C3 4.36667 3.05 4.25 3.15 4.15C3.25 4.05 3.36667 4 3.5 4H4.5C4.63333 4 4.75 4.05 4.85 4.15C4.95 4.25 5 4.36667 5 4.5V7.5C5 7.63333 4.95 7.75 4.85 7.85C4.75 7.95 4.63333 8 4.5 8ZM3.5 14C3.36667 14 3.25 13.95 3.15 13.85C3.05 13.75 3 13.6333 3 13.5V13.275C3 13.2083 3.04167 13.1 3.125 12.95L4.8 11H3.5C3.36667 11 3.25 10.95 3.15 10.85C3.05 10.75 3 10.6333 3 10.5C3 10.3667 3.05 10.25 3.15 10.15C3.25 10.05 3.36667 10 3.5 10H5.5C5.63333 10 5.75 10.05 5.85 10.15C5.95 10.25 6 10.3667 6 10.5V10.725C6 10.7917 5.95833 10.9 5.875 11.05L4.2 13H5.5C5.63333 13 5.75 13.05 5.85 13.15C5.95 13.25 6 13.3667 6 13.5C6 13.6333 5.95 13.75 5.85 13.85C5.75 13.95 5.63333 14 5.5 14H3.5ZM9 19C8.71667 19 8.47933 18.904 8.288 18.712C8.096 18.5207 8 18.2833 8 18C8 17.7167 8.096 17.4793 8.288 17.288C8.47933 17.096 8.71667 17 9 17H20C20.2833 17 20.5207 17.096 20.712 17.288C20.904 17.4793 21 17.7167 21 18C21 18.2833 20.904 18.5207 20.712 18.712C20.5207 18.904 20.2833 19 20 19H9ZM9 13C8.71667 13 8.47933 12.904 8.288 12.712C8.096 12.5207 8 12.2833 8 12C8 11.7167 8.096 11.479 8.288 11.287C8.47933 11.0957 8.71667 11 9 11H20C20.2833 11 20.5207 11.0957 20.712 11.287C20.904 11.479 21 11.7167 21 12C21 12.2833 20.904 12.5207 20.712 12.712C20.5207 12.904 20.2833 13 20 13H9ZM9 7C8.71667 7 8.47933 6.90433 8.288 6.713C8.096 6.521 8 6.28333 8 6C8 5.71667 8.096 5.479 8.288 5.287C8.47933 5.09567 8.71667 5 9 5H20C20.2833 5 20.5207 5.09567 20.712 5.287C20.904 5.479 21 5.71667 21 6C21 6.28333 20.904 6.521 20.712 6.713C20.5207 6.90433 20.2833 7 20 7H9Z" fill="#353535"/>
</svg>
