<svg width="17" height="16" viewBox="0 0 17 16" fill="none" xmlns="http://www.w3.org/2000/svg">
<path d="M14 5C13.7167 5 13.4793 4.904 13.288 4.712C13.096 4.52067 13 4.28333 13 4V3C13 2.71667 13.096 2.479 13.288 2.287C13.4793 2.09567 13.7167 2 14 2H16V1H13.5C13.3667 1 13.25 0.95 13.15 0.85C13.05 0.75 13 0.633333 13 0.5C13 0.366667 13.05 0.25 13.15 0.15C13.25 0.0500001 13.3667 0 13.5 0H16C16.2833 0 16.5207 0.0956668 16.712 0.287C16.904 0.479 17 0.716667 17 1V2C17 2.28333 16.904 2.521 16.712 2.713C16.5207 2.90433 16.2833 3 16 3H14V4H16.5C16.6333 4 16.75 4.05 16.85 4.15C16.95 4.25 17 4.36667 17 4.5C17 4.63333 16.95 4.75 16.85 4.85C16.75 4.95 16.6333 5 16.5 5H14ZM1.92499 16C1.47499 16 1.14599 15.8083 0.937989 15.425C0.729322 15.0417 0.741655 14.6583 0.974988 14.275L4.49999 8.725L1.29999 3.725C1.06666 3.34167 1.05432 2.95833 1.26299 2.575C1.47099 2.19167 1.79166 2 2.22499 2C2.42499 2 2.60832 2.04567 2.77499 2.137C2.94165 2.229 3.07499 2.35833 3.17499 2.525L5.94999 7H6.04999L8.79999 2.525C8.89999 2.34167 9.02099 2.20833 9.16299 2.125C9.30432 2.04167 9.49999 2 9.74999 2C10.2 2 10.525 2.19167 10.725 2.575C10.925 2.95833 10.9083 3.34167 10.675 3.725L7.47499 8.725L11.025 14.25C11.2583 14.6333 11.2667 15.021 11.05 15.413C10.8333 15.8043 10.5083 16 10.075 16C9.87499 16 9.69166 15.9543 9.52499 15.863C9.35832 15.771 9.22499 15.6417 9.12499 15.475L6.04999 10.575H5.94999L2.87499 15.475C2.75832 15.6583 2.63332 15.7917 2.49999 15.875C2.36665 15.9583 2.17499 16 1.92499 16Z" fill="#353535"/>
</svg>
