<svg width="25" height="25" viewBox="0 0 25 25" fill="none" xmlns="http://www.w3.org/2000/svg">
<path d="M19.375 5C20.2038 5 20.9987 5.32924 21.5847 5.91529C22.1708 6.50134 22.5 7.2962 22.5 8.125V18.125C22.5 18.9538 22.1708 19.7487 21.5847 20.3347C20.9987 20.9208 20.2038 21.25 19.375 21.25H5.625C4.7962 21.25 4.00134 20.9208 3.41529 20.3347C2.82924 19.7487 2.5 18.9538 2.5 18.125V8.125C2.5 7.2962 2.82924 6.50134 3.41529 5.91529C4.00134 5.32924 4.7962 5 5.625 5H19.375ZM21.25 9.95125L12.8175 14.9137C12.7378 14.9606 12.6487 14.9891 12.5566 14.9973C12.4645 15.0055 12.3717 14.9932 12.285 14.9613L12.1825 14.9137L3.75 9.95375V18.125C3.75 18.6223 3.94754 19.0992 4.29917 19.4508C4.65081 19.8025 5.12772 20 5.625 20H19.375C19.8723 20 20.3492 19.8025 20.7008 19.4508C21.0525 19.0992 21.25 18.6223 21.25 18.125V9.95125ZM19.375 6.25H5.625C5.12772 6.25 4.65081 6.44754 4.29917 6.79917C3.94754 7.15081 3.75 7.62772 3.75 8.125V8.5025L12.5 13.65L21.25 8.5V8.125C21.25 7.62772 21.0525 7.15081 20.7008 6.79917C20.3492 6.44754 19.8723 6.25 19.375 6.25Z" fill="#A8A8A8"/>
</svg>
