<svg width="22" height="21" viewBox="0 0 22 21" fill="none" xmlns="http://www.w3.org/2000/svg">
<path d="M21.0687 18.6875C19.7538 16.4203 17.7125 14.6631 15.275 13.7C16.4713 12.8028 17.355 11.5518 17.8009 10.1244C18.2468 8.69705 18.2322 7.16555 17.7594 5.74688C17.2865 4.3282 16.3792 3.09428 15.166 2.2199C13.9529 1.34552 12.4954 0.875 11 0.875C9.50457 0.875 8.04707 1.34552 6.83393 2.2199C5.62078 3.09428 4.71351 4.3282 4.24062 5.74688C3.76773 7.16555 3.75319 8.69705 4.19908 10.1244C4.64496 11.5518 5.52866 12.8028 6.72499 13.7C4.28746 14.6631 2.24613 16.4203 0.931237 18.6875C0.782053 18.9461 0.741701 19.2533 0.81906 19.5417C0.896419 19.83 1.08515 20.0758 1.34374 20.225C1.60232 20.3742 1.90958 20.4145 2.19792 20.3372C2.48626 20.2598 2.73205 20.0711 2.88124 19.8125C3.7041 18.3874 4.88756 17.2041 6.31269 16.3813C7.73782 15.5586 9.35441 15.1254 11 15.1254C12.6456 15.1254 14.2621 15.5586 15.6873 16.3813C17.1124 17.2041 18.2959 18.3874 19.1187 19.8125C19.2183 19.983 19.3605 20.1246 19.5315 20.2232C19.7025 20.3219 19.8963 20.3742 20.0937 20.375C20.2913 20.3766 20.4857 20.3248 20.6562 20.225C20.7843 20.1512 20.8966 20.0529 20.9867 19.9356C21.0768 19.8184 21.1429 19.6845 21.1812 19.5417C21.2195 19.399 21.2293 19.25 21.21 19.1034C21.1907 18.9569 21.1427 18.8155 21.0687 18.6875ZM6.12499 8C6.12499 7.03582 6.4109 6.09329 6.94657 5.2916C7.48224 4.48991 8.24362 3.86506 9.13441 3.49609C10.0252 3.12711 11.0054 3.03057 11.9511 3.21867C12.8967 3.40677 13.7654 3.87107 14.4471 4.55285C15.1289 5.23464 15.5932 6.10328 15.7813 7.04893C15.9694 7.99459 15.8729 8.97479 15.5039 9.86558C15.1349 10.7564 14.5101 11.5177 13.7084 12.0534C12.9067 12.5891 11.9642 12.875 11 12.875C9.70706 12.875 8.46708 12.3614 7.55284 11.4471C6.6386 10.5329 6.12499 9.29293 6.12499 8Z" fill="#B9B9B9"/>
</svg>
