<svg width="22" height="24" viewBox="0 0 22 24" fill="none" xmlns="http://www.w3.org/2000/svg">
<path d="M11 12.166C10.6726 12.1674 10.3547 12.2816 10.0952 12.4911C9.83561 12.7006 9.64877 12.9938 9.56338 13.3257C9.47799 13.6576 9.49876 14.0097 9.62252 14.3279C9.74627 14.6462 9.96615 14.913 10.2483 15.0872V17.325H11.77V15.0872C11.9933 14.9486 12.1786 14.7516 12.3079 14.5155C12.4372 14.2793 12.5061 14.0121 12.5079 13.7397V13.7397C12.5079 13.5323 12.4689 13.3268 12.393 13.1353C12.3171 12.9437 12.2059 12.7698 12.0657 12.6236C11.9256 12.4773 11.7593 12.3616 11.5764 12.2831C11.3935 12.2045 11.1976 12.1648 11 12.166V12.166Z" stroke="#A8A8A8" stroke-linecap="round" stroke-linejoin="round"/>
<path d="M16.6329 8.55176H5.36251C4.26898 8.55176 3.38251 9.48256 3.38251 10.6308V18.8553C3.38251 20.0035 4.26898 20.9343 5.36251 20.9343H16.6329C17.7264 20.9343 18.6129 20.0035 18.6129 18.8553V10.6308C18.6129 9.48256 17.7264 8.55176 16.6329 8.55176Z" stroke="#A8A8A8" stroke-linecap="round" stroke-linejoin="round"/>
<path d="M6.11874 8.55172V7.29565C6.11874 5.93506 6.6335 4.63019 7.54977 3.66811C8.46604 2.70602 9.70877 2.16553 11.0046 2.16553C12.3004 2.16553 13.5431 2.70602 14.4594 3.66811C15.3757 4.63019 15.8904 5.93506 15.8904 7.29565V8.55172" stroke="#A8A8A8" stroke-linecap="round" stroke-linejoin="round"/>
</svg>
