<svg width="23" height="24" viewBox="0 0 23 24" fill="none" xmlns="http://www.w3.org/2000/svg">
<path d="M17 18H16.8477C16.668 17.125 16.3516 16.3203 15.8984 15.5859C15.4453 14.8516 14.8945 14.2188 14.2461 13.6875C13.5977 13.1562 12.8672 12.7422 12.0547 12.4453C11.2422 12.1484 10.3906 12 9.5 12C8.8125 12 8.14844 12.0898 7.50781 12.2695C6.86719 12.4492 6.26953 12.6992 5.71484 13.0195C5.16016 13.3398 4.65625 13.7305 4.20312 14.1914C3.75 14.6523 3.35938 15.1602 3.03125 15.7148C2.70312 16.2695 2.44922 16.8672 2.26953 17.5078C2.08984 18.1484 2 18.8125 2 19.5H0.5C0.5 18.5625 0.636719 17.6602 0.910156 16.793C1.18359 15.9258 1.57812 15.125 2.09375 14.3906C2.60938 13.6562 3.21875 13.0039 3.92188 12.4336C4.625 11.8633 5.42188 11.4141 6.3125 11.0859C5.42969 10.5078 4.74219 9.78125 4.25 8.90625C3.75781 8.03125 3.50781 7.0625 3.5 6C3.5 5.17188 3.65625 4.39453 3.96875 3.66797C4.28125 2.94141 4.70703 2.30469 5.24609 1.75781C5.78516 1.21094 6.42188 0.78125 7.15625 0.46875C7.89062 0.15625 8.67188 0 9.5 0C10.3281 0 11.1055 0.15625 11.832 0.46875C12.5586 0.78125 13.1953 1.20703 13.7422 1.74609C14.2891 2.28516 14.7188 2.92188 15.0312 3.65625C15.3438 4.39062 15.5 5.17188 15.5 6C15.5 6.51562 15.4375 7.01953 15.3125 7.51172C15.1875 8.00391 15 8.46875 14.75 8.90625C14.5 9.34375 14.207 9.74609 13.8711 10.1133C13.5352 10.4805 13.1406 10.8047 12.6875 11.0859C13.5625 11.4219 14.3672 11.8828 15.1016 12.4688C15.8359 13.0547 16.4688 13.7422 17 14.5312V18ZM5 6C5 6.625 5.11719 7.20703 5.35156 7.74609C5.58594 8.28516 5.90625 8.76172 6.3125 9.17578C6.71875 9.58984 7.19531 9.91406 7.74219 10.1484C8.28906 10.3828 8.875 10.5 9.5 10.5C10.1172 10.5 10.6992 10.3828 11.2461 10.1484C11.793 9.91406 12.2695 9.59375 12.6758 9.1875C13.082 8.78125 13.4062 8.30469 13.6484 7.75781C13.8906 7.21094 14.0078 6.625 14 6C14 5.38281 13.8828 4.80078 13.6484 4.25391C13.4141 3.70703 13.0938 3.23047 12.6875 2.82422C12.2812 2.41797 11.8008 2.09375 11.2461 1.85156C10.6914 1.60938 10.1094 1.49219 9.5 1.5C8.875 1.5 8.29297 1.61719 7.75391 1.85156C7.21484 2.08594 6.73828 2.40625 6.32422 2.8125C5.91016 3.21875 5.58594 3.69922 5.35156 4.25391C5.11719 4.80859 5 5.39062 5 6ZM20 19.5H23V21H20V24H18.5V21H15.5V19.5H18.5V16.5H20V19.5Z" fill="#B9B9B9"/>
</svg>
