<svg width="24" height="24" viewBox="0 0 24 24" fill="none" xmlns="http://www.w3.org/2000/svg">
<path d="M22.0686 19.6875C20.7537 17.4203 18.7124 15.6631 16.2749 14.7C17.4712 13.8028 18.3549 12.5518 18.8008 11.1244C19.2467 9.69705 19.2322 8.16555 18.7593 6.74688C18.2864 5.3282 17.3791 4.09428 16.166 3.2199C14.9528 2.34552 13.4953 1.875 11.9999 1.875C10.5045 1.875 9.04698 2.34552 7.83383 3.2199C6.62069 4.09428 5.71342 5.3282 5.24053 6.74688C4.76764 8.16555 4.7531 9.69705 5.19899 11.1244C5.64487 12.5518 6.52856 13.8028 7.7249 14.7C5.28737 15.6631 3.24604 17.4203 1.93115 19.6875C1.78196 19.9461 1.74161 20.2533 1.81897 20.5417C1.89633 20.83 2.08506 21.0758 2.34365 21.225C2.60223 21.3742 2.90949 21.4145 3.19783 21.3372C3.48616 21.2598 3.73196 21.0711 3.88115 20.8125C4.70401 19.3874 5.88747 18.2041 7.3126 17.3813C8.73773 16.5586 10.3543 16.1254 11.9999 16.1254C13.6455 16.1254 15.2621 16.5586 16.6872 17.3813C18.1123 18.2041 19.2958 19.3874 20.1186 20.8125C20.2182 20.983 20.3605 21.1246 20.5315 21.2232C20.7025 21.3219 20.8962 21.3742 21.0936 21.375C21.2912 21.3766 21.4856 21.3248 21.6561 21.225C21.7842 21.1512 21.8965 21.0529 21.9866 20.9356C22.0767 20.8184 22.1428 20.6845 22.1811 20.5417C22.2194 20.399 22.2292 20.25 22.2099 20.1034C22.1906 19.9569 22.1426 19.8155 22.0686 19.6875ZM7.1249 9C7.1249 8.03582 7.41081 7.09329 7.94648 6.2916C8.48215 5.48991 9.24352 4.86506 10.1343 4.49609C11.0251 4.12711 12.0053 4.03057 12.951 4.21867C13.8966 4.40677 14.7653 4.87107 15.447 5.55285C16.1288 6.23464 16.5931 7.10328 16.7812 8.04893C16.9693 8.99459 16.8728 9.97479 16.5038 10.8656C16.1348 11.7564 15.51 12.5177 14.7083 13.0534C13.9066 13.5891 12.9641 13.875 11.9999 13.875C10.707 13.875 9.46699 13.3614 8.55275 12.4471C7.63851 11.5329 7.1249 10.2929 7.1249 9Z" fill="#B9B9B9"/>
</svg>
