<svg width="24" height="24" viewBox="0 0 24 24" fill="none" xmlns="http://www.w3.org/2000/svg">
<path fill-rule="evenodd" clip-rule="evenodd" d="M4.4801 1.6001H4.4001C4.0337 1.6001 3.7185 1.6001 3.4401 1.6657C3.00912 1.76868 2.61506 1.98897 2.30159 2.30216C1.98812 2.61535 1.76747 3.00921 1.6641 3.4401C1.6001 3.7185 1.6001 4.0321 1.6001 4.4001V8.4001C1.6001 8.7665 1.6001 9.0817 1.6657 9.3601C1.76868 9.79108 1.98897 10.1851 2.30216 10.4986C2.61535 10.8121 3.00921 11.0327 3.4401 11.1361C3.7185 11.2001 4.0321 11.2001 4.4001 11.2001H8.4001C8.7665 11.2001 9.0817 11.2001 9.3601 11.1345C9.79108 11.0315 10.1851 10.8112 10.4986 10.498C10.8121 10.1848 11.0327 9.79099 11.1361 9.3601C11.2001 9.0817 11.2001 8.7681 11.2001 8.4001V4.4001C11.2001 4.0337 11.2001 3.7185 11.1345 3.4401C11.0315 3.00912 10.8112 2.61506 10.498 2.30159C10.1848 1.98812 9.79099 1.76747 9.3601 1.6641C9.0817 1.6001 8.7681 1.6001 8.4001 1.6001H4.4801ZM3.8129 3.2225C3.8817 3.2065 3.9889 3.2001 4.4801 3.2001H8.3201C8.8129 3.2001 8.9185 3.2049 8.9873 3.2225C9.13103 3.25687 9.26242 3.33038 9.36692 3.43487C9.47142 3.53937 9.54493 3.67077 9.5793 3.8145C9.5953 3.8817 9.6001 3.9873 9.6001 4.4801V8.3201C9.6001 8.8129 9.5953 8.9185 9.5777 8.9873C9.54333 9.13103 9.46982 9.26242 9.36532 9.36692C9.26082 9.47142 9.12943 9.54493 8.9857 9.5793C8.9201 9.5937 8.8145 9.6001 8.3201 9.6001H4.4801C3.9873 9.6001 3.8817 9.5953 3.8129 9.5777C3.66917 9.54333 3.53777 9.46982 3.43327 9.36532C3.32878 9.26082 3.25527 9.12943 3.2209 8.9857C3.2065 8.9201 3.2001 8.8145 3.2001 8.3201V4.4801C3.2001 3.9873 3.2049 3.8817 3.2225 3.8129C3.25687 3.66917 3.33038 3.53777 3.43487 3.43327C3.53937 3.32878 3.67077 3.25527 3.8145 3.2209L3.8129 3.2225ZM15.6801 1.6001H15.6001C15.2337 1.6001 14.9185 1.6001 14.6401 1.6657C14.2091 1.76868 13.8151 1.98897 13.5016 2.30216C13.1881 2.61535 12.9675 3.00921 12.8641 3.4401C12.8001 3.7185 12.8001 4.0321 12.8001 4.4001V8.4001C12.8001 8.7665 12.8001 9.0817 12.8657 9.3601C12.9687 9.79108 13.189 10.1851 13.5022 10.4986C13.8153 10.8121 14.2092 11.0327 14.6401 11.1361C14.9185 11.2001 15.2321 11.2001 15.6001 11.2001H19.6001C19.9665 11.2001 20.2817 11.2001 20.5601 11.1345C20.9911 11.0315 21.3851 10.8112 21.6986 10.498C22.0121 10.1848 22.2327 9.79099 22.3361 9.3601C22.4001 9.0817 22.4001 8.7681 22.4001 8.4001V4.4001C22.4001 4.0337 22.4001 3.7185 22.3345 3.4401C22.2315 3.00912 22.0112 2.61506 21.698 2.30159C21.3848 1.98812 20.991 1.76747 20.5601 1.6641C20.2817 1.6001 19.9681 1.6001 19.6001 1.6001H15.6801ZM15.0129 3.2225C15.0817 3.2065 15.1889 3.2001 15.6801 3.2001H19.5201C20.0129 3.2001 20.1185 3.2049 20.1873 3.2225C20.331 3.25687 20.4624 3.33038 20.5669 3.43487C20.6714 3.53937 20.7449 3.67077 20.7793 3.8145C20.7953 3.8817 20.8001 3.9873 20.8001 4.4801V8.3201C20.8001 8.8129 20.7937 8.9185 20.7777 8.9873C20.7433 9.13103 20.6698 9.26242 20.5653 9.36692C20.4608 9.47142 20.3294 9.54493 20.1857 9.5793C20.1185 9.5953 20.0129 9.6001 19.5201 9.6001H15.6801C15.1873 9.6001 15.0817 9.5953 15.0129 9.5777C14.8692 9.54333 14.7378 9.46982 14.6333 9.36532C14.5288 9.26082 14.4553 9.12943 14.4209 8.9857C14.4065 8.9201 14.4001 8.8145 14.4001 8.3201V4.4801C14.4001 3.9873 14.4049 3.8817 14.4225 3.8129C14.4569 3.66917 14.5304 3.53777 14.6349 3.43327C14.7394 3.32878 14.8708 3.25527 15.0145 3.2209L15.0129 3.2225ZM4.4001 12.8001H8.4001C8.7665 12.8001 9.0817 12.8001 9.3601 12.8657C9.79108 12.9687 10.1851 13.189 10.4986 13.5022C10.8121 13.8153 11.0327 14.2092 11.1361 14.6401C11.2001 14.9185 11.2001 15.2321 11.2001 15.6001V19.6001C11.2001 19.9665 11.2001 20.2817 11.1345 20.5601C11.0315 20.9911 10.8112 21.3851 10.498 21.6986C10.1848 22.0121 9.79099 22.2327 9.3601 22.3361C9.0817 22.4001 8.7681 22.4001 8.4001 22.4001H4.4001C4.0337 22.4001 3.7185 22.4001 3.4401 22.3345C3.00912 22.2315 2.61506 22.0112 2.30159 21.698C1.98812 21.3848 1.76747 20.991 1.6641 20.5601C1.6001 20.2817 1.6001 19.9681 1.6001 19.6001V15.6001C1.6001 15.2337 1.6001 14.9185 1.6657 14.6401C1.76868 14.2091 1.98897 13.8151 2.30216 13.5016C2.61535 13.1881 3.00921 12.9675 3.4401 12.8641C3.7185 12.8001 4.0321 12.8001 4.4001 12.8001ZM4.4801 14.4001C3.9873 14.4001 3.8817 14.4049 3.8129 14.4225C3.66917 14.4569 3.53777 14.5304 3.43327 14.6349C3.32878 14.7394 3.25527 14.8708 3.2209 15.0145C3.2065 15.0801 3.2001 15.1857 3.2001 15.6801V19.5201C3.2001 20.0129 3.2049 20.1185 3.2225 20.1873C3.25687 20.331 3.33038 20.4624 3.43487 20.5669C3.53937 20.6714 3.67077 20.7449 3.8145 20.7793C3.8817 20.7953 3.9873 20.8001 4.4801 20.8001H8.3201C8.8129 20.8001 8.9185 20.7937 8.9873 20.7777C9.13103 20.7433 9.26242 20.6698 9.36692 20.5653C9.47142 20.4608 9.54493 20.3294 9.5793 20.1857C9.5953 20.1185 9.6001 20.0129 9.6001 19.5201V15.6801C9.6001 15.1873 9.5953 15.0817 9.5777 15.0129C9.54333 14.8692 9.46982 14.7378 9.36532 14.6333C9.26082 14.5288 9.12943 14.4553 8.9857 14.4209C8.9201 14.4065 8.8145 14.4001 8.3201 14.4001H4.4801ZM15.6801 12.8001H15.6001C15.2337 12.8001 14.9185 12.8001 14.6401 12.8657C14.2091 12.9687 13.8151 13.189 13.5016 13.5022C13.1881 13.8153 12.9675 14.2092 12.8641 14.6401C12.8001 14.9185 12.8001 15.2321 12.8001 15.6001V19.6001C12.8001 19.9665 12.8001 20.2817 12.8657 20.5601C12.9687 20.9911 13.189 21.3851 13.5022 21.6986C13.8153 22.0121 14.2092 22.2327 14.6401 22.3361C14.9185 22.4017 15.2337 22.4017 15.6001 22.4017H19.6001C19.9665 22.4017 20.2817 22.4017 20.5601 22.3361C20.9908 22.2329 21.3845 22.0124 21.6977 21.6993C22.0108 21.3861 22.2313 20.9924 22.3345 20.5617C22.4001 20.2833 22.4001 19.9681 22.4001 19.6017V15.6001C22.4001 15.2337 22.4001 14.9185 22.3345 14.6401C22.2315 14.2091 22.0112 13.8151 21.698 13.5016C21.3848 13.1881 20.991 12.9675 20.5601 12.8641C20.2817 12.8001 19.9681 12.8001 19.6001 12.8001H15.6801ZM15.0129 14.4225C15.0817 14.4065 15.1889 14.4001 15.6801 14.4001H19.5201C20.0129 14.4001 20.1185 14.4049 20.1873 14.4225C20.331 14.4569 20.4624 14.5304 20.5669 14.6349C20.6714 14.7394 20.7449 14.8708 20.7793 15.0145C20.7953 15.0817 20.8001 15.1873 20.8001 15.6801V19.5201C20.8001 20.0129 20.7937 20.1185 20.7777 20.1873C20.7433 20.331 20.6698 20.4624 20.5653 20.5669C20.4608 20.6714 20.3294 20.7449 20.1857 20.7793C20.1185 20.7953 20.0129 20.8001 19.5201 20.8001H15.6801C15.1873 20.8001 15.0817 20.7937 15.0129 20.7777C14.8692 20.7433 14.7378 20.6698 14.6333 20.5653C14.5288 20.4608 14.4553 20.3294 14.4209 20.1857C14.4065 20.1201 14.4001 20.0145 14.4001 19.5201V15.6801C14.4001 15.1873 14.4049 15.0817 14.4225 15.0129C14.4569 14.8692 14.5304 14.7378 14.6349 14.6333C14.7394 14.5288 14.8708 14.4553 15.0145 14.4209L15.0129 14.4225Z" fill="#264FAD"/>
</svg>
